<svg xmlns="http://www.w3.org/2000/svg" viewBox="0 0 256 256" role="img" aria-label="Game Display Switcher logo">
  <defs>
    <linearGradient id="tile" x1="0" y1="0" x2="1" y2="1"><stop stop-color="#182338"/><stop offset="1" stop-color="#0b1020"/></linearGradient>
    <linearGradient id="screen" x1="0" y1="0" x2="1" y2="1"><stop stop-color="#0b3347"/><stop offset="1" stop-color="#17143d"/></linearGradient>
    <linearGradient id="pad" x1="0" y1="0" x2="1" y2="1"><stop stop-color="#8b5cf6"/><stop offset="1" stop-color="#5b35cf"/></linearGradient>
  </defs>
  <rect x="8" y="8" width="240" height="240" rx="52" fill="url(#tile)"/>
  <rect x="38" y="39" width="180" height="126" rx="20" fill="url(#screen)" stroke="#45d8ef" stroke-width="13"/>
  <path d="M110 165v21H86a9 9 0 0 0 0 18h84a9 9 0 0 0 0-18h-24v-21" fill="none" stroke="#45d8ef" stroke-width="12" stroke-linejoin="round"/>
  <path d="M63 142c7-19 22-28 41-28h48c19 0 34 9 41 28l13 39c6 18-13 33-28 22l-17-13H95l-17 13c-15 11-34-4-28-22z" fill="url(#pad)" stroke="#c4b5fd" stroke-width="7" stroke-linejoin="round"/>
  <path d="M91 145v28M77 159h28" stroke="#ecfeff" stroke-width="9" stroke-linecap="round"/>
  <circle cx="165" cy="151" r="7" fill="#45d8ef"/><circle cx="181" cy="166" r="7" fill="#ecfeff"/><circle cx="129" cy="174" r="6" fill="#45d8ef" opacity=".9"/>
</svg>
